<?xml version="1.0" encoding="UTF-8"?>
<svg xmlns="http://www.w3.org/2000/svg" id="logo-200x37-nextwin" width="142.79" height="25.881" viewBox="0 0 142.79 25.881">
  <path id="Path_246" data-name="Path 246" d="M87.382,24.113V21.168h.359a3.434,3.434,0,0,0,2.8-1.221l2.586,1.508a6.113,6.113,0,0,1-5.459,2.658Zm0-5.243V16.356h3.16a2.9,2.9,0,0,0-1.149-1.867,3.151,3.151,0,0,0-1.939-.646h-.072V10.969h.072a6.178,6.178,0,0,1,4.525,1.867,6.448,6.448,0,0,1,1.8,4.669A7.915,7.915,0,0,1,93.63,18.8H87.382Zm20.183,4.956H103.83L101.1,20.019l-2.729,3.807H94.636l4.6-6.393-4.381-6.105h3.735l2.514,3.519,2.514-3.519h3.663L102.9,17.433l4.669,6.393Zm8.691-9.409h-2.8v5.171a1.241,1.241,0,0,0,.359.934,1.6,1.6,0,0,0,.934.359h1.58v2.945c-2.227.215-3.807.072-4.669-.646-.934-.646-1.365-1.867-1.365-3.591V14.416h-2.155V11.328h2.155V8.814l3.232-1.006v3.519h2.8v3.089Zm6.033,9.409-4.6-17.454h3.591L124.659,19.3l3.663-12.929h3.017L135,19.3l3.3-12.929h3.3l-4.6,17.454h-3.95l-3.3-11.564-3.3,11.564Zm21.4,0v-12.5h3.232v12.5Zm13.072-12.857a4.388,4.388,0,0,1,3.376,1.365,5.346,5.346,0,0,1,1.365,3.807v7.685h-3.232V16.5a2.75,2.75,0,0,0-.646-1.939,2.5,2.5,0,0,0-1.8-.646,2.7,2.7,0,0,0-2.011.79A3.157,3.157,0,0,0,153.1,17v6.752H149.87V11.328H153.1v1.365A4.056,4.056,0,0,1,156.765,10.969ZM75.027,6.3h3.448V23.754H75.889l-7.542-10.63v10.7H64.9V6.3h2.586L75.027,17V6.3Zm12.354,4.669v2.873a3.277,3.277,0,0,0-2.083.646,3.331,3.331,0,0,0-1.149,1.867h3.16V18.87h-3.16a3.076,3.076,0,0,0,3.16,2.3v2.945a6.563,6.563,0,0,1-4.6-1.867A6.44,6.44,0,0,1,80.845,17.5a6.382,6.382,0,0,1,6.536-6.536Z" transform="translate(-18.716 -2.122)" fill="#282828"></path>
  <g id="Group_1071" data-name="Group 1071">
    <path id="Path_247" data-name="Path 247" d="M23.67,16.015l-2.011-6.9c-1.724-1.652-3.3-.431-4.669,3.591l-.79,2.658,2.011,6.9c1.724,1.652,3.3.431,4.669-3.591Z" transform="translate(-4.995 -2.715)" fill="#b5163c" fill-rule="evenodd"></path>
    <path id="Path_248" data-name="Path 248" d="M9.075,22.593,12.954,9.449l-.287,1.077c1.365-4.022,2.945-5.171,4.669-3.591-.79-2.729-1.437-5.89-4.884-6.249-4.31-.431-5.1,3.232-6.033,6.321L1.749,22.521c0,.072-.072.144-.072.215a.264.264,0,0,1,.072-.215h0L.6,26.4H4.55C6.274,26.544,8.285,25.394,9.075,22.593Z" transform="translate(-0.6 -0.531)" fill="#e52355" fill-rule="evenodd"></path>
    <path id="Path_249" data-name="Path 249" d="M27.26,4.4,23.381,17.546l.287-1.077C22.3,20.491,20.724,21.64,19,20.06c.79,2.729,1.437,5.89,4.884,6.249,4.31.431,5.1-3.232,6.033-6.321l4.6-15.514c0-.072.072-.144.072-.215a.264.264,0,0,1-.072.215h0L35.664.6h-3.95C29.989.452,27.978,1.6,27.26,4.4Z" transform="translate(-5.784 -0.512)" fill="#e52355" fill-rule="evenodd"></path>
    <path id="Path_250" data-name="Path 250" d="M42.46,4.3,38.581,17.446l.287-1.077C37.5,20.391,35.924,21.54,34.2,19.96c.79,2.729,1.437,5.89,4.884,6.249,4.31.431,5.1-3.232,6.033-6.321l4.6-15.514c0-.072.072-.144.072-.215a.264.264,0,0,1-.072.215h0L50.864.5h-3.95C45.189.352,43.178,1.5,42.46,4.3Z" transform="translate(-10.066 -0.483)" fill="#e52355" fill-rule="evenodd"></path>
  </g>
  <path id="Path_251" data-name="Path 251" d="M174.675,9.1a1.962,1.962,0,0,0,1.365.575,2.135,2.135,0,0,0,1.437-.575,1.908,1.908,0,0,0,0-2.729,1.751,1.751,0,0,0-1.437-.575,1.962,1.962,0,0,0-1.365.575,2.1,2.1,0,0,0-.575,1.365A1.8,1.8,0,0,0,174.675,9.1Z" transform="translate(-49.482 -1.981)" fill="#fff" fill-rule="evenodd"></path>
</svg>
