<?xml version="1.0" encoding="UTF-8"?>
<svg id="logo-200x37-nextwin" xmlns="http://www.w3.org/2000/svg" viewBox="0 0 142.79 25.88">
  <defs>
    <style>
      .cls-1 {
        fill: #fff;
      }

      .cls-1, .cls-2, .cls-3 {
        fill-rule: evenodd;
      }

      .cls-2 {
        fill: #1a3b9b;
      }

      .cls-3 {
        fill: #1a75fb;
      }

      .cls-4 {
        fill: #111827;
      }
    </style>
  </defs>
  <path id="Path_246" data-name="Path 246" class="cls-4" d="M68.67,21.99v-2.95h.36c1.07.05,2.11-.4,2.8-1.22l2.59,1.51c-1.22,1.79-3.3,2.8-5.46,2.66h-.29ZM68.67,16.74v-2.51h3.16c-.12-.75-.54-1.42-1.15-1.87-.56-.42-1.24-.65-1.94-.65h-.07v-2.87h.07c1.7-.03,3.34.65,4.53,1.87,1.2,1.25,1.85,2.93,1.8,4.67-.01.44-.06.87-.15,1.3h-6.25v.07ZM88.85,21.7h-3.74l-2.73-3.81-2.73,3.81h-3.74l4.6-6.39-4.38-6.1h3.74l2.51,3.52,2.51-3.52h3.66l-4.38,6.11,4.67,6.39h0ZM97.54,12.29h-2.8v5.17c-.02.35.11.69.36.93.26.22.59.34.93.36h1.58v2.94c-2.23.22-3.81.07-4.67-.65-.93-.65-1.36-1.87-1.36-3.59v-5.17h-2.15v-3.09h2.15v-2.51l3.23-1.01v3.52h2.8v3.09h-.07ZM103.57,21.7l-4.6-17.45h3.59l3.38,12.93,3.66-12.93h3.02l3.66,12.93,3.3-12.93h3.3l-4.6,17.45h-3.95l-3.3-11.56-3.3,11.56h-4.16ZM124.97,21.7v-12.5h3.23v12.5h-3.23ZM138.05,8.84c1.27-.06,2.5.44,3.38,1.36.94,1.04,1.43,2.41,1.37,3.81v7.68h-3.23v-7.33c.04-.71-.19-1.4-.65-1.94-.49-.45-1.14-.68-1.8-.65-.75-.03-1.48.26-2.01.79-.53.64-.79,1.47-.71,2.3v6.75h-3.23v-12.42h3.23v1.36c.83-1.19,2.22-1.84,3.66-1.72h0ZM56.31,4.17h3.45v17.45h-2.59l-7.54-10.63v10.7h-3.45V4.17h2.59l7.54,10.7V4.17ZM68.66,8.84v2.87c-.75-.03-1.48.2-2.08.65-.58.47-.99,1.13-1.15,1.87h3.16v2.52h-3.16c.37,1.42,1.69,2.39,3.16,2.3v2.94c-1.72,0-3.37-.67-4.6-1.87-1.25-1.26-1.92-2.98-1.86-4.75-.09-3.52,2.7-6.45,6.22-6.54.1,0,.21,0,.31,0h0Z"/>
  <g id="Group_1071" data-name="Group 1071">
    <path id="Path_247" data-name="Path 247" class="cls-2" d="M18.68,13.3l-2.01-6.9c-1.72-1.65-3.3-.43-4.67,3.59l-.79,2.66,2.01,6.9c1.72,1.65,3.3.43,4.67-3.59l.79-2.66Z"/>
    <path id="Path_248" data-name="Path 248" class="cls-3" d="M8.47,22.06l3.88-13.14-.29,1.08c1.36-4.02,2.94-5.17,4.67-3.59-.79-2.73-1.44-5.89-4.88-6.25-4.31-.43-5.1,3.23-6.03,6.32L1.15,21.99c0,.07-.07.14-.07.22,0-.08.02-.16.07-.22h0l-1.15,3.88h3.95c1.72.14,3.73-1.01,4.52-3.81Z"/>
    <path id="Path_249" data-name="Path 249" class="cls-3" d="M21.48,3.88l-3.88,13.15.29-1.08c-1.37,4.02-2.94,5.17-4.67,3.59.79,2.73,1.44,5.89,4.88,6.25,4.31.43,5.1-3.23,6.03-6.32l4.6-15.51c0-.07.07-.14.07-.22,0,.08-.02.16-.07.22h0L29.88.08h-3.95c-1.73-.15-3.74,1-4.45,3.8Z"/>
    <path id="Path_250" data-name="Path 250" class="cls-3" d="M32.39,3.81l-3.88,13.15.29-1.08c-1.37,4.02-2.94,5.17-4.67,3.59.79,2.73,1.44,5.89,4.88,6.25,4.31.43,5.1-3.23,6.03-6.32l4.6-15.51c0-.07.07-.14.07-.22,0,.08-.02.16-.07.22h0L40.8.01h-3.95c-1.72-.15-3.74,1-4.45,3.8Z"/>
  </g>
  <path id="Path_251" data-name="Path 251" class="cls-1" d="M125.19,7.11c.36.36.85.57,1.37.57.53,0,1.05-.21,1.44-.57.75-.74.77-1.94.03-2.7-.01-.01-.02-.02-.03-.03-.36-.4-.89-.62-1.44-.57-.51,0-1,.21-1.37.57-.35.37-.56.86-.57,1.36-.01.52.2,1.01.57,1.36Z"/>
</svg>