<?xml version="1.0" encoding="utf-8"?>
<!-- Generator: Adobe Illustrator 27.2.0, SVG Export Plug-In . SVG Version: 6.00 Build 0)  -->
<svg version="1.1" id="Laag_1" xmlns="http://www.w3.org/2000/svg" xmlns:xlink="http://www.w3.org/1999/xlink" x="0px" y="0px"
	 viewBox="0 0 500 87.3" style="enable-background:new 0 0 500 87.3;" xml:space="preserve">
<style type="text/css">
	.st0{fill:#4E5862;}
	.st1{fill:#BA2024;}
	.st2{opacity:0.15;fill:#1D1D1B;}
	.st3{fill:#F1F0EF;}
	.st4{opacity:0.4;fill:#FFFFFF;}
	.st5{fill:#FFFFFF;}
</style>
<g>
	<g>
		<path class="st0" d="M145.2,20.8v16.5h22.6v7.4h-22.6v23H137V13.4h34.7v7.4H145.2z"/>
		<path class="st0" d="M189.1,67.7c-7.4,0-10.6-5-10.6-10.7V13.4h7.8v43.2c0,3,1.1,4.5,4.2,4.5h3.4v6.6H189.1z"/>
		<path class="st0" d="M204.4,50.7c0,6.6,3.5,10.8,9.8,10.8c4.3,0,6.6-1.2,9.4-4l5,4.7c-4,4-7.7,6-14.5,6c-9.7,0-17.4-5.1-17.4-19.8
			c0-12.5,6.5-19.7,16.4-19.7c10.4,0,16.4,7.6,16.4,18.6v3.4H204.4z M220.7,40c-1.2-2.9-4-4.9-7.6-4.9c-3.7,0-6.5,2-7.7,4.9
			c-0.8,1.8-0.9,2.9-1,5.3h17.4C221.7,42.9,221.5,41.7,220.7,40z"/>
		<path class="st0" d="M258.5,67.7l-8.1-13.2l-8.2,13.2h-9.4L246.2,48l-12.7-18.9h9.4l7.6,12.6l7.5-12.6h9.4L254.7,48l13.2,19.7
			H258.5z"/>
		<path class="st0" d="M301.2,64.8c-2.1,2.1-5.5,3.4-9.4,3.4c-4.1,0-7.3-1.1-10.1-4.4v19.6h-7.8V29.1h7.6v4.1
			c2.9-3.5,6-4.6,10.2-4.6c3.9,0,7.3,1.3,9.5,3.4c3.9,3.9,4.3,10.4,4.3,16.3S305,60.9,301.2,64.8z M289.7,35.6
			c-7,0-8.1,5.9-8.1,12.8c0,6.9,1.1,12.9,8.1,12.9c7,0,8-6,8-12.9C297.7,41.5,296.7,35.6,289.7,35.6z"/>
		<path class="st0" d="M324.5,67.7c-7.4,0-10.6-5-10.6-10.7V13.4h7.8v43.2c0,3,1.1,4.5,4.2,4.5h3.4v6.6H324.5z"/>
		<path class="st0" d="M339.7,50.7c0,6.6,3.5,10.8,9.8,10.8c4.3,0,6.6-1.2,9.4-4l5,4.7c-4,4-7.7,6-14.5,6c-9.7,0-17.4-5.1-17.4-19.8
			c0-12.5,6.5-19.7,16.4-19.7c10.4,0,16.4,7.6,16.4,18.6v3.4H339.7z M356.1,40c-1.2-2.9-4-4.9-7.6-4.9c-3.7,0-6.5,2-7.7,4.9
			c-0.8,1.8-0.9,2.9-1,5.3h17.4C357,42.9,356.8,41.7,356.1,40z"/>
		<path class="st0" d="M397.5,67.7l-10.8-17.8l-5.7,6.5v11.4h-7.8V13.4h7.8v33.5l15-17.8h9.5L392,44.3l15.1,23.5H397.5z"/>
		<path class="st0" d="M467,67.6V44.1c0-6-3.4-8.6-7.8-8.6c-4.3,0-8,2.7-8,8.6v23.6h-7.8V29h7.6v3.9c2.7-2.9,6.4-4.3,10.3-4.3
			c4,0,7.2,1.3,9.5,3.5c3,2.9,3.9,6.6,3.9,10.9v24.7H467z"/>
		<path class="st0" d="M495.2,67.6c-7.4,0-10.6-5-10.6-10.7V13.3h7.8v43.2c0,3,1.1,4.5,4.2,4.5h3.4v6.6H495.2z"/>
	</g>
	<path class="st1" d="M418.3,62.5c0-0.7,0.1-1.4,0.4-2.1c0.3-0.6,0.6-1.2,1.1-1.7c0.5-0.5,1-0.9,1.7-1.1c0.6-0.3,1.3-0.4,2-0.4
		c0.7,0,1.4,0.1,2,0.4c0.6,0.3,1.2,0.7,1.6,1.1c0.5,0.5,0.8,1,1.1,1.7c0.3,0.6,0.4,1.3,0.4,2.1c0,0.7-0.1,1.4-0.4,2.1
		c-0.3,0.6-0.6,1.2-1.1,1.7c-0.5,0.5-1,0.9-1.6,1.1c-0.6,0.3-1.3,0.4-2,0.4c-0.7,0-1.4-0.1-2-0.4c-0.6-0.3-1.2-0.7-1.7-1.1
		c-0.5-0.5-0.8-1-1.1-1.7C418.4,64,418.3,63.3,418.3,62.5z"/>
	<path class="st1" d="M68.3,87.3H19.1c-10.5,0-19-8.5-19-19V19C0,8.5,8.6,0,19.1,0h49.2c10.5,0,19,8.5,19,19v49.2
		C87.3,78.7,78.8,87.3,68.3,87.3z"/>
	<path class="st2" d="M0,59.6l87.3-28.7l0,43.2c0,7.3-5.9,13.2-13.2,13.2L13,87.3c-7.2,0-13-5.9-12.9-13C0.1,67.1,0.1,59.8,0,59.6z"
		/>
	<g>
		<path class="st3" d="M24.5,23.1L37,33.2v43.6L24.2,66.5C24.2,66.5,24.5,22.9,24.5,23.1z"/>
		<path class="st4" d="M50.6,14.2l12.7,10.1l-0.1,25.5l-12.5-10C50.6,39.8,50.6,14,50.6,14.2z"/>
		<polygon class="st5" points="24.3,48.5 50.6,39.8 63.2,49.8 36.9,58.6 		"/>
		<polygon class="st5" points="24.5,23.1 50.8,14.3 63.3,24.3 37,33.2 		"/>
	</g>
	<path class="st5" d="M68.7,73.5c0-0.5,0.1-1,0.3-1.4c0.2-0.4,0.4-0.8,0.8-1.2c0.3-0.3,0.7-0.6,1.1-0.8c0.4-0.2,0.9-0.3,1.4-0.3
		s0.9,0.1,1.3,0.3c0.4,0.2,0.8,0.4,1.1,0.8c0.3,0.3,0.6,0.7,0.7,1.2c0.2,0.4,0.3,0.9,0.3,1.4c0,0.5-0.1,1-0.3,1.4
		c-0.2,0.4-0.4,0.8-0.7,1.2c-0.3,0.3-0.7,0.6-1.1,0.8c-0.4,0.2-0.9,0.3-1.3,0.3s-0.9-0.1-1.4-0.3c-0.4-0.2-0.8-0.4-1.1-0.8
		c-0.3-0.3-0.6-0.7-0.8-1.2C68.8,74.5,68.7,74,68.7,73.5z"/>
</g>
</svg>
