<?xml version="1.0" encoding="UTF-8"?><svg id="Laag_1" xmlns="http://www.w3.org/2000/svg" viewBox="0 0 170.47 82.3"><defs><style>.cls-1{fill:#0082ca;}</style></defs><rect class="cls-1" x="39.89" y="52.44" width="90.69" height="4.25"/><path class="cls-1" d="m14.59,31.08c0,4.37-2.39,6.94-5.54,6.94-2.61,0-3.92-1.31-3.92-1.31v-9.96s1.62-2.25,4.55-2.25c2.66,0,4.91,2.25,4.91,6.58Zm5.23-.95c0-7.66-4.46-10.09-8.42-10.09-4.32,0-6.26,2.48-6.26,2.48V.1H0v39.26s3.33,2.43,8.78,2.43c6.22,0,11.04-4.28,11.04-11.67Z"/><path class="cls-1" d="m40.13,34.05c0,2.97-2.07,4.1-3.83,4.1-1.49,0-2.93-.81-2.93-2.84,0-2.93,3.06-3.33,6.76-3.33v2.07Zm4.77,7.3v-14.59c0-5.95-4.82-6.76-7.7-6.76-5.05,0-8.15,2.79-8.15,2.79l1.49,3.74s2.43-2.39,5.58-2.39,4.01,1.76,4.01,3.69v1.13c-5.31,0-11.67.63-11.67,6.94,0,3.78,2.75,5.9,6.22,5.9,3.24,0,5.05-2.48,5.45-3.6v3.15h4.77Z"/><path class="cls-1" d="m69.54,33.01c0,3.38-2.39,4.73-4.46,4.73s-4.95-1.53-4.95-7.07c0-2.21.63-4.01,1.71-5.18.95-.95,2.25-1.49,3.96-1.49,2.34,0,3.74,1.08,3.74,1.08v7.93Zm5.14,8.33V0h-5.14v20.99s-1.58-.99-4.5-.99c-5.63,0-10.09,4.05-10.09,11.44s3.87,10.36,8.47,10.36c4.1,0,5.72-2.97,6.13-3.74v3.29h5.14Z"/><path class="cls-1" d="m98.86,27.92h-8.78c0-.68.72-4.19,4.5-4.19s4.28,3.15,4.28,4.19Zm5.18,3.42c0-7.21-2.61-11.35-9.1-11.35-2.93,0-5.49,1.04-7.16,2.84-1.8,1.94-2.84,4.64-2.84,7.84,0,6.98,3.6,11.13,10.13,11.13,5.45,0,8.69-3.47,8.69-3.47l-2.07-3.51s-2.34,2.75-6.13,2.75c-4.01,0-5.63-3.69-5.63-6.22h14.1Z"/><path class="cls-1" d="m126.2,25.63s-1.17-.76-2.88-.76c-2.12,0-4.1,1.3-4.1,5.04v11.44h-5.18v-20.86h5.18v3.33s1.35-3.83,5.27-3.83c1.85,0,2.88.63,2.88.63l-1.17,5Z"/><path class="cls-1" d="m138.63,17.65c-1.71,0-3.15-1.26-3.15-3.11s1.44-3.11,3.15-3.11,3.15,1.26,3.15,3.11-1.4,3.11-3.15,3.11Zm-2.61,23.69v-20.86h5.18v20.86h-5.18Z"/><path class="cls-1" d="m165.29,27.92h-8.78c0-.68.72-4.19,4.5-4.19s4.28,3.15,4.28,4.19Zm5.18,3.42c0-7.21-2.61-11.35-9.1-11.35-2.93,0-5.5,1.04-7.16,2.84-1.8,1.94-2.84,4.64-2.84,7.84,0,6.98,3.6,11.13,10.13,11.13,5.45,0,8.69-3.47,8.69-3.47l-2.07-3.51s-2.34,2.75-6.13,2.75c-4.01,0-5.63-3.69-5.63-6.22h14.1Z"/><path class="cls-1" d="m32.79,82.3c-2.82,0-4.22-1.08-4.22-1.08v-13.7h2.8v6.04s.84-1.14,2.8-1.14c1.56,0,3.76.86,3.76,4.58,0,3.36-2.3,5.3-5.14,5.3Zm.36-7.42c-1.18,0-1.78.92-1.78.92v3.96s.64.42,1.52.42c1.22,0,2.2-1.02,2.2-2.8s-1.02-2.5-1.94-2.5Z"/><path class="cls-1" d="m48.15,82.06v-1.5c-.08.32-.78,1.74-2.44,1.74s-3-.86-3-2.74c0-2.82,2.98-3.2,5.42-3.2,0-.6.04-1.78-1.82-1.78-1.46,0-2.64,1.14-2.64,1.14l-.8-2.04s1.44-1.32,4.04-1.32c1.24,0,3.84.34,3.84,3.24v6.46h-2.6Zm0-4.1c-1,0-2.86-.02-2.86,1.28,0,1,.74,1.14,1.22,1.14.66,0,1.64-.4,1.64-1.48v-.94Z"/><path class="cls-1" d="m62.49,75.28s-.54-.36-1.3-.36-1.76.28-1.76,2.02v5.12h-2.8v-9.44h2.8v1.64s.42-1.9,2.34-1.9c.9,0,1.46.38,1.46.38l-.74,2.54Z"/><path class="cls-1" d="m74.27,82.06v-5.26c0-1.04-.14-2.12-1.66-2.12-.78,0-1.76.56-1.76,1.72v5.66h-2.8v-9.44h2.8v1.4s.52-1.66,2.96-1.66c2.02,0,3.24,1.26,3.24,3.02v6.68h-2.78Z"/><path class="cls-1" d="m84.99,77.8s.16,2.26,2.38,2.26c1.64,0,2.76-1.06,2.76-1.06l1.1,1.8s-1.6,1.5-4.08,1.5c-3.18,0-4.78-2-4.78-5.14,0-2.76,1.68-4.8,4.62-4.8,3.52,0,4.38,2.62,4.38,5.44h-6.38Zm1.88-3.44c-1.7,0-1.82,1.6-1.82,1.6h3.54s.08-1.6-1.72-1.6Z"/><path class="cls-1" d="m101.33,82.06h-2.36l-3.74-9.44h2.88l2.12,6.12,2.26-6.12h2.78l-3.94,9.44Z"/><path class="cls-1" d="m111.81,77.8s.16,2.26,2.38,2.26c1.64,0,2.76-1.06,2.76-1.06l1.1,1.8s-1.6,1.5-4.08,1.5c-3.18,0-4.78-2-4.78-5.14,0-2.76,1.68-4.8,4.62-4.8,3.52,0,4.38,2.62,4.38,5.44h-6.38Zm1.88-3.44c-1.7,0-1.82,1.6-1.82,1.6h3.54s.08-1.6-1.72-1.6Z"/><path class="cls-1" d="m123.49,82.06v-14.54h2.8v14.54h-2.8Z"/><path class="cls-1" d="m138.29,82.06v-1.6s-.7,1.84-2.68,1.84c-2.24,0-3.88-1.58-3.88-4.78s2.18-5.16,4.5-5.16c1.42,0,2.06.48,2.06.48v-5.32h2.8v14.54h-2.8Zm0-7.06s-.48-.44-1.5-.44c-1.38,0-2.26,1.02-2.26,2.64,0,2.12,1.02,2.88,2,2.88s1.76-.64,1.76-1.96v-3.12Z"/></svg>