<svg id="Laag_1" data-name="Laag 1" xmlns="http://www.w3.org/2000/svg" viewBox="0 0 254.36 144.67"><defs><style>.cls-1{fill:#221e1f;}.cls-2{fill:#e4502d;}.cls-3{fill:#fff;}</style></defs><path class="cls-1" d="M162.86,134.65v-6a15.16,15.16,0,0,0,3.53-1.44l.62-.36.57-.43a12.83,12.83,0,0,0,4.21-5.58c2.13-.2,4.37-.31,6.68-.31h.73c2.66,0,6.33.19,10.22.38,5,.24,10.22.49,14.86.49h.64c15.44-.16,24.55-.75,31.52-3.54,9-3.59,12.84-10.08,16.2-17l.15-.26.06-.11.36-.84c.11-.26.23-.52.34-.79l.3-.75.78-3,.09-.36c.18-.79.31-1.54.41-2.23v-.1a25.91,25.91,0,0,0,.24-4.42,15.51,15.51,0,0,0-2.21-7.44,12.94,12.94,0,0,0,.27-3c.11-.32.24-.64.36-1,.37-1,.8-2,1.25-3,.54-1.26,1.06-2.59,1.63-4.15s1-3,1.36-4.4a21.29,21.29,0,0,0,.72-6.27A14.4,14.4,0,0,0,256,51a20.2,20.2,0,0,0-3.12-3.52l-.18-.16a22.16,22.16,0,0,0-3.58-2.52l-.17-.09a15,15,0,0,0-7.11-1.87h-.58A27.79,27.79,0,0,0,233,44.6a16.28,16.28,0,0,0-2.91-6.36,19.43,19.43,0,0,0-5.33-4.83,21.89,21.89,0,0,0-6.16-2.56,23.9,23.9,0,0,0-4.18-.65V23a20.74,20.74,0,0,0-.8-5.75,16.88,16.88,0,0,0-3.4-6.31A16.5,16.5,0,0,0,204,6.49a18.67,18.67,0,0,0-7.21-1.37H174.88v0h-7.77c-4,0-8-.31-12-.66-.65-.06-1.32-.09-2-.09a20.66,20.66,0,0,0-8.46,1.71,19.84,19.84,0,0,0-6.5,4.55,19.58,19.58,0,0,0-4,6.46,19.8,19.8,0,0,0-1.3,7V34.29a22.44,22.44,0,0,0-3.9-.35l-.95,0a11.87,11.87,0,0,0-6,1.92c-.67-.24-1.35-.45-2.06-.63a23.28,23.28,0,0,0-5.54-.69l-1,0a12.58,12.58,0,0,0-11.81,13,12.56,12.56,0,0,0,.16,1.49,20.69,20.69,0,0,0-6.14-1.14,19.2,19.2,0,0,0-2.82-7.63A21.94,21.94,0,0,0,86.66,34a24,24,0,0,0-7.5-3.41,25.93,25.93,0,0,0-6.61-.87l-1,0a12.19,12.19,0,0,0-8.37,3.84,22.22,22.22,0,0,0-12-3.31l-1.18,0a38.36,38.36,0,0,0-10.32,2,62.76,62.76,0,0,0-9.47,4.08,79.39,79.39,0,0,0-8.68,5.35,63.61,63.61,0,0,0-7.69,6.36A42.4,42.4,0,0,0,7.85,55.2,19.11,19.11,0,0,0,4.43,66.46a16.76,16.76,0,0,0,3.12,9.2,24.59,24.59,0,0,0,3.63,4c.64.56,1.34,1.2,2.08,1.91a3.63,3.63,0,0,1,.46.59,12.14,12.14,0,0,0,4.64,4.55c-.21.85-.38,1.67-.51,2.47A22.4,22.4,0,0,0,17.43,94a13.56,13.56,0,0,0,8,11.45,26.24,26.24,0,0,0-.28,4.91,23.15,23.15,0,0,0,5.06,14A17.75,17.75,0,0,0,44,131.25l.72,0a22.88,22.88,0,0,0,6.48-1.31l.28-.1a16.19,16.19,0,0,0,14.32,8.67l.73,0a16,16,0,0,0,6.37-1.72c.4-.19.79-.4,1.18-.62a19.88,19.88,0,0,0,2.75,5.34A18.35,18.35,0,0,0,83.32,147a19.48,19.48,0,0,0,9,2.06l.9,0c6.55-.28,13.1-.63,19.66-.63h36.17A13.76,13.76,0,0,0,162.86,134.65Z" transform="translate(-4.42 -4.42)"/><path class="cls-2" d="M160.67,44.76a7.39,7.39,0,0,1-1.52,2.72,7.62,7.62,0,0,1-2.75,1.94,10.29,10.29,0,0,1-4.1.74,9.28,9.28,0,0,1-4-.76,7.75,7.75,0,0,1-2.67-1.94,7.37,7.37,0,0,1-1.5-2.63,9.32,9.32,0,0,1-.47-2.87V21.6a8.52,8.52,0,0,1,.56-3A7.92,7.92,0,0,1,145.94,16a8.34,8.34,0,0,1,2.77-1.91,9.52,9.52,0,0,1,3.88-.74,9.62,9.62,0,0,1,4,.74A7.76,7.76,0,0,1,159.22,16a7,7,0,0,1,1.47,2.6,9.38,9.38,0,0,1,.44,2.75V41.68A10.13,10.13,0,0,1,160.67,44.76Zm-4.1-22.82a4.61,4.61,0,0,0-.2-1.23,3.72,3.72,0,0,0-.66-1.28A3.88,3.88,0,0,0,152.55,18a4.11,4.11,0,0,0-3.26,1.45,4.12,4.12,0,0,0-.76,1.35,4.34,4.34,0,0,0-.25,1.32V41.26a4.82,4.82,0,0,0,.22,1.42,3.8,3.8,0,0,0,.71,1.33,3.84,3.84,0,0,0,3.09,1.37,4.7,4.7,0,0,0,2-.39,3.63,3.63,0,0,0,1.3-1,4.12,4.12,0,0,0,.71-1.4,5.29,5.29,0,0,0,.22-1.5Z" transform="translate(-4.42 -4.42)"/><path class="cls-2" d="M178.12,49.38V47.52a12,12,0,0,1-2,1.79,4.58,4.58,0,0,1-2.77.91,8.77,8.77,0,0,1-3.9-.76,7.23,7.23,0,0,1-2.48-1.91,6.7,6.7,0,0,1-1.3-2.58,10.74,10.74,0,0,1-.37-2.75V14.09h4.56V41.57a4.29,4.29,0,0,0,.2,1.2,4,4,0,0,0,.66,1.28,3.78,3.78,0,0,0,1.25,1,4,4,0,0,0,1.91.42,4.18,4.18,0,0,0,1.94-.42,4.45,4.45,0,0,0,1.33-1,4.09,4.09,0,0,0,1-2.56V14.09h4.56V49.38Z" transform="translate(-4.42 -4.42)"/><path class="cls-2" d="M202.79,47.81a5.89,5.89,0,0,1-4.37,1.57H187.67V14h10.55a7.23,7.23,0,0,1,2.8.49,5,5,0,0,1,1.91,1.35,5.4,5.4,0,0,1,1.08,2,9.09,9.09,0,0,1,.34,2.55V43A6.5,6.5,0,0,1,202.79,47.81Zm-3-26.8a2.71,2.71,0,0,0-.52-1.74,2.35,2.35,0,0,0-1.94-.66h-5.1V44.82h5.1c1.64,0,2.45-.79,2.45-2.36V21Z" transform="translate(-4.42 -4.42)"/><path class="cls-2" d="M95.61,118v-4.41a4.18,4.18,0,0,0-.18-1.13,3.28,3.28,0,0,0-.61-1.17,3.57,3.57,0,0,0-1.15-.92,3.78,3.78,0,0,0-1.76-.38,3.76,3.76,0,0,0-3,1.33,3.74,3.74,0,0,0-.7,1.24A3.94,3.94,0,0,0,88,113.8v5.54a1.22,1.22,0,0,0,.36.9,3.35,3.35,0,0,0,1,.65,8.31,8.31,0,0,0,1.42.52l1.67.45,2.59.74a8.67,8.67,0,0,1,2.3,1.06,5.4,5.4,0,0,1,1.64,1.69,4.94,4.94,0,0,1,.63,2.64v4a8.48,8.48,0,0,1-.43,2.64A6.82,6.82,0,0,1,97.76,137a7.35,7.35,0,0,1-2.45,1.78,8.55,8.55,0,0,1-3.63.7,8.13,8.13,0,0,1-3.78-.79,7,7,0,0,1-2.5-2.12,8.72,8.72,0,0,1-1.4-3,13.76,13.76,0,0,1-.43-3.45h4.14A8.81,8.81,0,0,0,88,132a5.43,5.43,0,0,0,.72,1.6,3.77,3.77,0,0,0,1.19,1.13,3.35,3.35,0,0,0,1.76.43,3.67,3.67,0,0,0,1.69-.36,3.6,3.6,0,0,0,1.15-.9,3.35,3.35,0,0,0,.65-1.22,4.39,4.39,0,0,0,.2-1.31v-3c0-.6-.41-1.05-1.22-1.35a23.4,23.4,0,0,0-2.75-.81q-1.35-.31-2.7-.72a9,9,0,0,1-2.43-1.13,5.9,5.9,0,0,1-1.78-1.87,5.58,5.58,0,0,1-.7-3V113.3a7.63,7.63,0,0,1,.52-2.73,7.28,7.28,0,0,1,1.53-2.45,7.67,7.67,0,0,1,2.55-1.76,9.89,9.89,0,0,1,7.21,0A7.05,7.05,0,0,1,98,108.12a6.56,6.56,0,0,1,1.35,2.39,8.5,8.5,0,0,1,.41,2.52v5H95.61Z" transform="translate(-4.42 -4.42)"/><path class="cls-2" d="M117.63,124.53a4.6,4.6,0,0,1-4,1.73h-5.86v12.52h-4.19V106.35h9.69a6.67,6.67,0,0,1,2.57.45,4.56,4.56,0,0,1,1.76,1.24,5,5,0,0,1,1,1.87,8.32,8.32,0,0,1,.32,2.34v7.57A8.12,8.12,0,0,1,117.63,124.53Zm-3-11.78a2.58,2.58,0,0,0-.47-1.6,2.13,2.13,0,0,0-1.78-.61h-4.69v11.53h5.14a1.54,1.54,0,0,0,1.42-.61,3.66,3.66,0,0,0,.38-1.87Z" transform="translate(-4.42 -4.42)"/><path class="cls-2" d="M138.14,134.49a6.81,6.81,0,0,1-1.35,2.39,7.65,7.65,0,0,1-6.08,2.64,8.76,8.76,0,0,1-3.56-.68,7.47,7.47,0,0,1-4.08-4.24,7.39,7.39,0,0,1-.52-2.7V113.3a7.63,7.63,0,0,1,.52-2.73,7.28,7.28,0,0,1,1.53-2.45,7.67,7.67,0,0,1,2.55-1.76,9.89,9.89,0,0,1,7.21,0,7.05,7.05,0,0,1,2.43,1.76,6.56,6.56,0,0,1,1.35,2.39,8.5,8.5,0,0,1,.41,2.52v13.24h-11.8v5.14a3.42,3.42,0,0,0,.23,1.19,4,4,0,0,0,.7,1.24,3.69,3.69,0,0,0,3,1.35,3.3,3.3,0,0,0,1.94-.5,3.53,3.53,0,0,0,1.13-1.24,5,5,0,0,0,.54-1.64,11.58,11.58,0,0,0,.14-1.71h4.14v2.07A8.64,8.64,0,0,1,138.14,134.49Zm-3.78-20.88a4.18,4.18,0,0,0-.18-1.13,3.28,3.28,0,0,0-.61-1.17,3.57,3.57,0,0,0-1.15-.92,3.78,3.78,0,0,0-1.76-.38,3.89,3.89,0,0,0-3.93,3.79v8.29h7.61v-8.48Z" transform="translate(-4.42 -4.42)"/><path class="cls-2" d="M142.37,138.79V106.36h4.19v28.25h6.53v4.19H142.37Z" transform="translate(-4.42 -4.42)"/><path class="cls-3" d="M31.7,78.87a15.25,15.25,0,0,1,4.06-1.68,45.55,45.55,0,0,1,5.06-1q2.1-7.66,3.82-15.08A86.83,86.83,0,0,0,46.79,47.9a13.49,13.49,0,0,0-5.47,1.55,33,33,0,0,0-5.63,3.64,54.2,54.2,0,0,0-5.28,4.8,62.83,62.83,0,0,0-4.4,5,42.33,42.33,0,0,0-3,4.31,6.05,6.05,0,0,0-1.1,2.67,1.7,1.7,0,0,0,.7,1.48,5.19,5.19,0,0,0,1.48.62,9.8,9.8,0,0,0,1.52.27c.45.05.72.2.8.45s-.17.31-.51.56a14.65,14.65,0,0,1-1.33.79,11.17,11.17,0,0,1-1.91.76,8.71,8.71,0,0,1-2.27.39c-.52,0-.82-.09-.89-.35a17.21,17.21,0,0,0-2.62-3.29c-.91-.87-1.76-1.64-2.53-2.32a13.25,13.25,0,0,1-2-2.15,5.13,5.13,0,0,1-.9-2.88A8.05,8.05,0,0,1,13,59.66a32.2,32.2,0,0,1,4.48-5.34A53.87,53.87,0,0,1,24,48.94a69.86,69.86,0,0,1,7.72-4.75,53,53,0,0,1,8-3.46,27.56,27.56,0,0,1,7.42-1.49,11.21,11.21,0,0,1,7.27,1.92c1.94,1.41,3,4,3.15,7.64A54.54,54.54,0,0,1,56.54,61q-1.3,7-2.92,14.66a89.06,89.06,0,0,1,10.92.89c.71-3,1.45-5.91,2.19-8.89s1.4-5.89,2-8.73,1-5.58,1.3-8.22a45.83,45.83,0,0,0,.31-7.35,3.83,3.83,0,0,0-.68-2.3A2.42,2.42,0,0,1,69,39.58a.93.93,0,0,1,.27-.55c.18-.23.34-.35.47-.36a14.58,14.58,0,0,1,4.35.49,12.94,12.94,0,0,1,4,1.82,10.51,10.51,0,0,1,3,3,8.25,8.25,0,0,1,1.25,4.13,44.71,44.71,0,0,1-.65,8.58q-.8,5.09-2.1,11.12T76.72,80.4q-1.52,6.52-2.8,12.8t-2.06,12a55.81,55.81,0,0,0-.6,9.84c0,1.1.14,2.16.28,3.2a19.72,19.72,0,0,0,.67,3.08A30.75,30.75,0,0,1,70,123.65a22.3,22.3,0,0,1-2.44,2,16.38,16.38,0,0,1-2.32,1.41,4.73,4.73,0,0,1-1.77.56A4.57,4.57,0,0,1,59,125a19.16,19.16,0,0,1-1.76-8.09,26.36,26.36,0,0,1,.19-3.41c.16-1.56.39-3.39.69-5.47s.66-4.31,1.07-6.66.83-4.68,1.25-7,.84-4.47,1.28-6.47.81-3.68,1.14-5c-1.55.07-3.26.19-5.14.37s-3.81.41-5.8.69c-.48,2.29-1,4.77-1.57,7.45s-1.12,5.34-1.65,8-1,5.18-1.28,7.59a35.87,35.87,0,0,0-.36,6.24,26.25,26.25,0,0,0,.46,4A9,9,0,0,1,44,119.38a12.64,12.64,0,0,1-3.32.73c-1.88.08-3.58-.82-5.12-2.7A12.13,12.13,0,0,1,33,110a21.6,21.6,0,0,1,.4-4.25c.31-1.8.71-3.74,1.21-5.84s1-4.24,1.62-6.44,1.13-4.24,1.63-6.14A35.86,35.86,0,0,0,32.28,90a14.7,14.7,0,0,0-3.94,3.28,2.21,2.21,0,0,1-1.61.94,1.4,1.4,0,0,1-1.29-.53A1.86,1.86,0,0,1,25,93a14.49,14.49,0,0,1,.28-2.54,25.27,25.27,0,0,1,1-4,20.1,20.1,0,0,1,2.05-4.27A9.69,9.69,0,0,1,31.7,78.87Z" transform="translate(-4.42 -4.42)"/><path class="cls-3" d="M105.65,80.06a2.41,2.41,0,0,1,.68.2,7.12,7.12,0,0,1,1.11.55,5.94,5.94,0,0,1,1,.82,1.47,1.47,0,0,1,.49,1,.74.74,0,0,1-.06.38A7.58,7.58,0,0,1,106,85.93a9.08,9.08,0,0,1-3.92,1,12,12,0,0,1-3.23-.31,39.31,39.31,0,0,1-3.78,6.9,19.78,19.78,0,0,1-3.32,3.7A7.62,7.62,0,0,1,89,98.79a9.3,9.3,0,0,1-1.86.34,5,5,0,0,1-3.56-1,7,7,0,0,1-2-2.87,15,15,0,0,1-1-3.89q-.24-2.13-.33-4.14A30.23,30.23,0,0,1,80.53,83c.19-1.83.51-3.83.94-6a67.92,67.92,0,0,1,1.7-6.66,39.78,39.78,0,0,1,2.46-6.21,17.75,17.75,0,0,1,3.21-4.59,6,6,0,0,1,4-1.9,9.48,9.48,0,0,1,4.79.92A10.49,10.49,0,0,1,101,61.14a10.62,10.62,0,0,1,1.94,3.4,12.16,12.16,0,0,1,.71,3.41,30.2,30.2,0,0,1-.36,4.66A47.38,47.38,0,0,1,101,81.17a8.14,8.14,0,0,0,1.88.14,3.53,3.53,0,0,0,2.18-.62A3.34,3.34,0,0,0,105.65,80.06ZM89.11,81.82c0,.3,0,.73.09,1.31a16.1,16.1,0,0,0,.26,1.75,4.27,4.27,0,0,0,.63,1.54,1.34,1.34,0,0,0,1.26.62c.9,0,1.64-.79,2.22-2.27A4.2,4.2,0,0,1,93,82.92a4.47,4.47,0,0,1,.71-2.65A2.73,2.73,0,0,1,96.09,79h.3c.27-.71.53-1.49.8-2.35s.51-1.72.75-2.58a20.06,20.06,0,0,0,.53-2.38,8.53,8.53,0,0,0,.14-1.84A11.63,11.63,0,0,0,98,66.06a5.78,5.78,0,0,0-1.21-2,2.87,2.87,0,0,0-1.31-.8,3.55,3.55,0,0,0-.94-.15c-.3,0-.74.56-1.31,1.63A27.35,27.35,0,0,0,91.43,69a48.84,48.84,0,0,0-1.57,6A38.57,38.57,0,0,0,89.11,81.82Z" transform="translate(-4.42 -4.42)"/><path class="cls-3" d="M113.45,43.72a11.69,11.69,0,0,1,3.31.34,10.41,10.41,0,0,1,3,1.22,7.92,7.92,0,0,1,2.18,2,4.43,4.43,0,0,1,.93,2.5,12.84,12.84,0,0,1-.7,3.81q-.75,2.54-1.92,5.85c-.78,2.2-1.62,4.56-2.54,7.07s-1.76,5-2.53,7.37-1.4,4.66-1.88,6.78a21,21,0,0,0-.63,5.34c0,1,.23,1.41.58,1.4A3.22,3.22,0,0,0,115,86.5a13.86,13.86,0,0,0,2.08-2.19,22.77,22.77,0,0,0,2-3.12,29.21,29.21,0,0,0,1.71-3.67l.15-.08a1.38,1.38,0,0,1,.69.27,4.58,4.58,0,0,1,.93.78,7.29,7.29,0,0,1,.83,1.09,2.27,2.27,0,0,1,.38,1.11.94.94,0,0,1-.06.45,25,25,0,0,1-1.29,3c-.6,1.22-1.31,2.53-2.15,3.91s-1.75,2.77-2.74,4.16a42,42,0,0,1-3,3.8,18.43,18.43,0,0,1-3.06,2.79,5.41,5.41,0,0,1-2.8,1.13,2.7,2.7,0,0,1-1.94-.66,5.24,5.24,0,0,1-1.32-1.93,12.86,12.86,0,0,1-.76-2.81,28.9,28.9,0,0,1-.33-3.24,30.38,30.38,0,0,1,.55-6.31c.44-2.51,1-5.21,1.71-8.08s1.47-5.81,2.31-8.82,1.63-5.86,2.36-8.56,1.34-5.13,1.82-7.3a32.64,32.64,0,0,0,.8-5,2.89,2.89,0,0,0-.53-1.77,1.93,1.93,0,0,1-.5-1.1.73.73,0,0,1,.21-.42C113.23,43.82,113.35,43.73,113.45,43.72Z" transform="translate(-4.42 -4.42)"/><path class="cls-3" d="M127.94,43.07a11.73,11.73,0,0,1,3.31.34,10.41,10.41,0,0,1,3,1.22,7.92,7.92,0,0,1,2.18,2,4.43,4.43,0,0,1,.93,2.5,12.84,12.84,0,0,1-.7,3.81q-.75,2.54-1.92,5.85t-2.54,7.07q-1.38,3.77-2.53,7.37T127.76,80a21,21,0,0,0-.63,5.34c0,1,.23,1.41.58,1.4a3.22,3.22,0,0,0,1.76-.86,13.42,13.42,0,0,0,2.08-2.19,22.77,22.77,0,0,0,2-3.12,29.21,29.21,0,0,0,1.71-3.67l.15-.08a1.38,1.38,0,0,1,.69.27,4.58,4.58,0,0,1,.93.78,7.29,7.29,0,0,1,.83,1.09,2.27,2.27,0,0,1,.38,1.11.94.94,0,0,1-.06.45,25,25,0,0,1-1.29,3.05c-.6,1.22-1.31,2.53-2.15,3.91S133,90.22,132,91.61a42,42,0,0,1-3,3.8A18.43,18.43,0,0,1,126,98.2a5.41,5.41,0,0,1-2.8,1.13,2.7,2.7,0,0,1-1.94-.66,5.24,5.24,0,0,1-1.32-1.93,12.86,12.86,0,0,1-.76-2.81,28.9,28.9,0,0,1-.33-3.24,30.38,30.38,0,0,1,.55-6.31c.44-2.51,1-5.21,1.71-8.08s1.47-5.81,2.31-8.82,1.63-5.86,2.36-8.56,1.34-5.13,1.82-7.3a31.41,31.41,0,0,0,.8-5,2.89,2.89,0,0,0-.53-1.77,1.93,1.93,0,0,1-.5-1.1.8.8,0,0,1,.21-.42C127.72,43.16,127.84,43.07,127.94,43.07Z" transform="translate(-4.42 -4.42)"/><path class="cls-3" d="M164.38,75.7a6.36,6.36,0,0,1,1.38.84,5.23,5.23,0,0,1,1,1,2.33,2.33,0,0,1,.47,1.33l0,.45a15.83,15.83,0,0,1-.88,2.13c-.5,1.07-1.15,2.29-1.94,3.68s-1.67,2.83-2.66,4.34-2,2.9-3,4.17a25.44,25.44,0,0,1-2.86,3.15,4.1,4.1,0,0,1-2.34,1.3,2.7,2.7,0,0,1-1.94-.66,5.24,5.24,0,0,1-1.32-1.93,12.86,12.86,0,0,1-.76-2.81,28.9,28.9,0,0,1-.33-3.24,28.54,28.54,0,0,1,.07-3.6,52.27,52.27,0,0,1-4.56,8c-1.44,2-2.93,3-4.47,3.07a3.41,3.41,0,0,1-2.85-1.11,8.33,8.33,0,0,1-1.66-3,19.32,19.32,0,0,1-.84-4c-.16-1.44-.27-2.78-.32-4a30.62,30.62,0,0,1,.23-4.13c.2-1.8.51-3.79.94-5.95s1-4.39,1.66-6.69a38.1,38.1,0,0,1,2.39-6.24A18,18,0,0,1,143,57.2a5.87,5.87,0,0,1,4-1.93,8.23,8.23,0,0,1,3.28.46,8,8,0,0,1,2.46,1.47,10.15,10.15,0,0,1,1.77,2,16,16,0,0,1,1.22,2.19,2.13,2.13,0,0,1,.35-.65.75.75,0,0,1,.59-.29,3.72,3.72,0,0,1,1.93.52,8.49,8.49,0,0,1,1.89,1.38,8.36,8.36,0,0,1,1.42,1.77,3.83,3.83,0,0,1,.6,1.84,12.24,12.24,0,0,1-.77,2.88c-.53,1.57-1.12,3.34-1.75,5.31s-1.21,3.93-1.73,5.87a16.68,16.68,0,0,0-.71,4.48c0,.65.22,1,.56,1s.93-.49,1.59-1.42,1.32-2,2-3.12,1.26-2.25,1.77-3.29S164.29,76,164.38,75.7Zm-20.44,3.42q0,.38.09,1.23a16.38,16.38,0,0,0,.27,1.82,7.22,7.22,0,0,0,.52,1.66c.22.47.5.69.85.67a1.94,1.94,0,0,0,1.2-.73,11,11,0,0,0,1.38-1.86,27,27,0,0,0,1.38-2.6c.46-1,.91-2,1.37-3,.41-1.91.86-3.8,1.33-5.67s.9-3.53,1.28-5c-.27-.54-.6-1.11-1-1.72a14.26,14.26,0,0,0-1.2-1.67A11.41,11.41,0,0,0,150.23,61a1.68,1.68,0,0,0-1.11-.48c-.4,0-.91.58-1.54,1.68a23,23,0,0,0-1.8,4.31,43.69,43.69,0,0,0-1.43,6A32.91,32.91,0,0,0,143.94,79.12Z" transform="translate(-4.42 -4.42)"/><path class="cls-3" d="M194,74.39a1.59,1.59,0,0,1,.95.33,4,4,0,0,1,.9.9,6.7,6.7,0,0,1,.69,1.21,3.34,3.34,0,0,1,.31,1.18,15.83,15.83,0,0,1-.88,2.13c-.5,1.07-1.15,2.29-1.94,3.68s-1.67,2.83-2.66,4.34-2,2.9-3,4.17a25.44,25.44,0,0,1-2.86,3.15,4.1,4.1,0,0,1-2.34,1.3,2.53,2.53,0,0,1-1.9-.67A5.76,5.76,0,0,1,180,94.18a11.34,11.34,0,0,1-.79-2.73,24.47,24.47,0,0,1-.32-3.17,27.82,27.82,0,0,1,.22-3.64c.18-1.68.43-3.58.76-5.72s.73-4.4,1.2-6.79,1-4.67,1.61-6.84a20.88,20.88,0,0,0-3.8,3.87,36.37,36.37,0,0,0-3.58,5.5,38.81,38.81,0,0,0-2.62,6.14,16.88,16.88,0,0,0-.91,5.84,32.86,32.86,0,0,0,.34,3.5,13.63,13.63,0,0,0,.93,3.33,6.62,6.62,0,0,1-3.38,2.39,14.19,14.19,0,0,1-2.86.57,3.44,3.44,0,0,1-3.41-1.91,12.29,12.29,0,0,1-1.24-5.37,23.79,23.79,0,0,1,.24-4.05c.21-1.6.51-3.34.9-5.2s.83-3.8,1.32-5.82,1-4,1.51-5.86,1-3.67,1.45-5.34.85-3.08,1.2-4.24a.42.42,0,0,0,0-.15.28.28,0,0,1,0-.15c0-.35.2-.53.65-.55a4.1,4.1,0,0,1,1.82.52,19.8,19.8,0,0,1,2.26,1.29,16.18,16.18,0,0,1,2,1.52,2.26,2.26,0,0,1,.88,1.31q-.31,1.29-.54,2.16c-.15.58-.3,1.15-.45,1.7s-.25,1-.29,1.21q1.35-1.48,3.11-3.31t3.37-3.44a37.68,37.68,0,0,1,2.95-2.67A4.24,4.24,0,0,1,186.32,57a3.89,3.89,0,0,1,1.85.48,9.34,9.34,0,0,1,1.93,1.3,7.24,7.24,0,0,1,1.5,1.81,4.12,4.12,0,0,1,.64,1.92,7.62,7.62,0,0,1-.37,1.74c-.26.91-.59,2-1,3.3s-.81,2.69-1.24,4.21-.84,3-1.23,4.47-.7,2.81-.95,4a12.94,12.94,0,0,0-.32,3c0,.65.22,1,.56,1s.93-.49,1.59-1.42,1.32-2,2-3.12,1.26-2.25,1.77-3.29S193.88,74.64,194,74.39Z" transform="translate(-4.42 -4.42)"/><path class="cls-3" d="M222.58,73.13a1.55,1.55,0,0,1,1,.33,4.36,4.36,0,0,1,.86.9,6.7,6.7,0,0,1,.69,1.21,3.34,3.34,0,0,1,.31,1.18,8.33,8.33,0,0,1-.81,2.13c-.5,1.07-1.15,2.29-1.94,3.68S221,85.39,220,86.9s-2,2.91-3,4.17a25.44,25.44,0,0,1-2.86,3.15,4.1,4.1,0,0,1-2.34,1.3,2.6,2.6,0,0,1-2-.74,5.63,5.63,0,0,1-1.32-2.08,12.06,12.06,0,0,1-.72-2.78c-.14-1-.23-1.94-.27-2.83,0-.55,0-1.07,0-1.57a11.7,11.7,0,0,1,.06-1.28,35.39,35.39,0,0,1-4.62,7.38q-2.28,2.64-4.37,2.73a3.41,3.41,0,0,1-2.85-1.11,8.33,8.33,0,0,1-1.66-3,19.32,19.32,0,0,1-.84-4c-.16-1.44-.27-2.78-.32-4a31.17,31.17,0,0,1,.23-4.16c.19-1.83.51-3.83.94-6s1-4.38,1.66-6.66a39.65,39.65,0,0,1,2.39-6.2,18,18,0,0,1,3.17-4.63,5.87,5.87,0,0,1,4-1.93,7.43,7.43,0,0,1,5.27,1.53,12.43,12.43,0,0,1,3,3.72,37.22,37.22,0,0,0,1.3-8c.1-2.37.11-4.36,0-5.95a6.56,6.56,0,0,0-.57-2.78,3.38,3.38,0,0,1-.51-1.44.8.8,0,0,1,.21-.42c.14-.18.26-.27.36-.28a11.73,11.73,0,0,1,3.31.34,10.41,10.41,0,0,1,3,1.22,7.92,7.92,0,0,1,2.18,2,4.43,4.43,0,0,1,.93,2.5,22.93,22.93,0,0,1-.5,4.81c-.39,2.06-.87,4.34-1.46,6.84s-1.25,5.08-2,7.76-1.4,5.18-2,7.49-1.1,4.34-1.5,6a16.56,16.56,0,0,0-.57,3.39c0,1,.24,1.41.58,1.4s.93-.49,1.59-1.42a34.57,34.57,0,0,0,2-3.12c.65-1.15,1.24-2.25,1.77-3.29S222.49,73.38,222.58,73.13Zm-20.42,3.65c0,.2,0,.57.09,1.12a13.65,13.65,0,0,0,.26,1.71A9,9,0,0,0,203,81.2c.19.47.47.69.81.68s.94-.38,1.49-1.07a16.72,16.72,0,0,0,1.61-2.61c.53-1,1-2.14,1.54-3.28s.95-2.17,1.36-3.09c.34-1.36.71-2.74,1.09-4.13s.78-2.79,1.17-4.2a8.23,8.23,0,0,0-.53-1c-.35-.63-.77-1.34-1.25-2.12a15,15,0,0,0-1.55-2.1c-.55-.62-1-.93-1.42-.91s-.68.6-1.31,1.78a27.9,27.9,0,0,0-1.82,4.57A53.1,53.1,0,0,0,202.65,70,30.09,30.09,0,0,0,202.16,76.78Z" transform="translate(-4.42 -4.42)"/><path class="cls-3" d="M238.76,90.86a2.15,2.15,0,0,0-1.13-3.1l-.8-.29c-1.28-.48-2.89-1.09-4.79-1.85a39.57,39.57,0,0,1-4.11-1.9,13.72,13.72,0,0,1-3.25-2.38,10.29,10.29,0,0,1-2.17-3.2,11.5,11.5,0,0,1-.92-4.22,10,10,0,0,1,1-4.51,22.56,22.56,0,0,1,3-4.7,37,37,0,0,1,4.31-4.52,41,41,0,0,1,5.12-3.9,30.63,30.63,0,0,1,5.42-2.79,16.67,16.67,0,0,1,5.23-1.17,3.34,3.34,0,0,1,1.69.49A9.85,9.85,0,0,1,249,54a9,9,0,0,1,1.38,1.55,3,3,0,0,1,.64,1.56,10.32,10.32,0,0,1-.38,3c-.29,1.12-.65,2.29-1.08,3.48s-.92,2.43-1.44,3.66-1,2.39-1.44,3.48-.78,2.09-1.07,3a6.35,6.35,0,0,0-.37,2,.6.6,0,0,0,.06.28,1.16,1.16,0,0,1,.15.53.85.85,0,0,1-.6.89,3.6,3.6,0,0,1-2.57-.37,8.06,8.06,0,0,1-1.84-1.29,7.49,7.49,0,0,1-1.42-1.9,5.38,5.38,0,0,1-.64-2.29,5.06,5.06,0,0,1,.42-2,24.93,24.93,0,0,1,1.07-2.4c.43-.85.91-1.76,1.43-2.66s1-1.79,1.43-2.66.8-1.68,1.09-2.41a7,7,0,0,0,.32-1.07,10.71,10.71,0,0,0-1.44.71,32.16,32.16,0,0,0-3.39,2.33,50.09,50.09,0,0,0-3.82,3.3A39.8,39.8,0,0,0,232,68.58a21.21,21.21,0,0,0-2.51,3.82,6.68,6.68,0,0,0-.86,3.23,2.3,2.3,0,0,0,1.26,1.86,17.32,17.32,0,0,0,2.94,1.5c2.78,1.1,5.11,2,6.93,2.67a38.74,38.74,0,0,1,4.41,1.88,8.17,8.17,0,0,1,2.46,1.79,3.85,3.85,0,0,1,.84,2.34,14.6,14.6,0,0,1-.15,2.49c-.06.42-.15.89-.26,1.38l-.6,2.37c-.11.27-.23.52-.34.77,0,0,0,.07,0,.1a.33.33,0,0,0,0,.06c-6.12,12.74-9.17,14.65-39.1,15-8.39,0-19.83-.86-26.65-.91a84.9,84.9,0,0,0-9.43.42c-16,1.67-12.46,6.54-10.82,6.89,1.83.4.6,1.33.6,1.33s-5,2.88-4.91-7.6c0-9.83,16-9.55,16-9.55s41.34,2.53,51.23,1c3.74-.69,11.73-.47,15.72-10.58C238.75,90.87,238.75,90.87,238.76,90.86Z" transform="translate(-4.42 -4.42)"/></svg>