<svg id="RRReis_logo" data-name="RRReis logo" xmlns="http://www.w3.org/2000/svg" viewBox="0 0 139.87 53.95"><defs><style>.cls-1{fill:#0086d6;}.cls-2{fill:#00965e;}.cls-3{fill:#4f287b;}</style></defs><path class="cls-1" d="M89.58,58.5a10.14,10.14,0,0,0-2.35-4.07,15.76,15.76,0,0,0,3.66-1.14A8.86,8.86,0,0,0,96.2,44.4c-.2-5.74-5.16-8.16-9-8.16l-10.87,0a.3.3,0,0,0-.28.23L74.84,41.8a.29.29,0,0,0,.28.34l12.25,0,2.17,3.55-3.73,3.55-12.36,0a.3.3,0,0,0-.28.23l-4,18.37a.29.29,0,0,0,.28.35H76.3a.28.28,0,0,0,.28-.22l2.7-12.42h1.34c1.54.19,2.12,4.22,2.72,6.31.87,3.17,2.63,6.49,6.93,6.49a13.46,13.46,0,0,0,2.37-.24.3.3,0,0,0,.22-.2l1.7-5.38a4,4,0,0,1-1.38.24c-2.54,0-2.91-2.28-3.6-4.27" transform="translate(-41.63 -32.09)"/><path class="cls-2" d="M157.43,41.75a4.83,4.83,0,1,1,4.84-4.83A4.83,4.83,0,0,1,157.43,41.75Zm0-7.34a2.51,2.51,0,1,0,2.51,2.51A2.51,2.51,0,0,0,157.43,34.41Z" transform="translate(-41.63 -32.09)"/><path class="cls-2" d="M137.91,63.44c-.45,0-1,.05-1.43.05a8.18,8.18,0,0,1-4.07-.82,3.3,3.3,0,0,1-1.49-2.84.49.49,0,0,1,.06-.27.27.27,0,0,1,.24-.09c5.84-.19,9.9-1.15,12.18-2.91a7.49,7.49,0,0,0,3.18-6.65,5.72,5.72,0,0,0-1.28-3.47,6.61,6.61,0,0,0-3-2,12.09,12.09,0,0,0-4.06-.64,13.14,13.14,0,0,0-7.78,2.26,13.4,13.4,0,0,0-4.71,5.81,16,16,0,0,0-1.29,7.33q.27,4.84,3.29,7.16a12.57,12.57,0,0,0,7.86,2.3,23,23,0,0,0,5.73-.62,6.08,6.08,0,0,0,1.51-.63.31.31,0,0,0,.09-.14l1.54-4.83a.29.29,0,0,0-.38-.35,20.46,20.46,0,0,1-6.22,1.36Zm-5.66-11.61a7.27,7.27,0,0,1,2.45-2.26,6.17,6.17,0,0,1,3.13-.85c1.88,0,2.87.66,2.94,2s-.6,2.25-2,3.09-3.92,1.31-7.51,1.44c-.21,0-.29-.11-.25-.33A7.7,7.7,0,0,1,132.25,51.83Z" transform="translate(-41.63 -32.09)"/><path class="cls-2" d="M172.54,49.27l.25-.08.28-.07a2.47,2.47,0,0,1,.29-.06,4.34,4.34,0,0,1,.52-.07h0c.25,0,.51,0,.8,0s.77,0,1.16,0h.07l.47,0a21.77,21.77,0,0,1,3.34.71.29.29,0,0,0,.35-.19l1.39-4.4a.28.28,0,0,0-.19-.36c-.59-.16-1.93-.52-2.35-.59h0l-.24,0a21.89,21.89,0,0,0-6.12-.3h0a14,14,0,0,0-3.32.68,7.18,7.18,0,0,0-3.5,2.47,6.34,6.34,0,0,0-1.1,4.25,6.41,6.41,0,0,0,.49,2.2,6.19,6.19,0,0,0,1.37,1.89,16.38,16.38,0,0,0,2.65,2c1.08.67,1.89,1.21,2.45,1.62a5.37,5.37,0,0,1,1.23,1.17,2.13,2.13,0,0,1,.44,1.14,1.58,1.58,0,0,1-.73,1.62,4,4,0,0,1-1.55.4l-.33,0h-.16a19,19,0,0,1-6.46-1.23.29.29,0,0,0-.37.18L162.2,67a.28.28,0,0,0,.16.35A20,20,0,0,0,167,68.48h0a26.31,26.31,0,0,0,3.19.23,13,13,0,0,0,7.41-1.85,6,6,0,0,0,2.49-5.69,6.36,6.36,0,0,0-1.41-3.73,14.85,14.85,0,0,0-3.93-3.17c-.92-.58-1.61-1-2.09-1.4a3.78,3.78,0,0,1-1-1,1.84,1.84,0,0,1-.31-.89A1.67,1.67,0,0,1,172.54,49.27Z" transform="translate(-41.63 -32.09)"/><path class="cls-2" d="M157.25,63.19a1.14,1.14,0,0,1-1.12-1.54c.4-1.85,2.63-12.33,3.66-16.72a.47.47,0,0,0,0-.43.52.52,0,0,0-.45-.16h-8.51a.27.27,0,0,0-.27.2L149,49.22a.28.28,0,0,0,.27.37h2.64c.21,0,.32.08.33.23l0,.14c-.77,3.41-1.38,6.25-1.94,8.8a22.7,22.7,0,0,0-.68,5.6,4.38,4.38,0,0,0,1.6,3.2,6.66,6.66,0,0,0,4.07,1,13.15,13.15,0,0,0,2-.16A10.21,10.21,0,0,0,159,68a.3.3,0,0,0,.17-.18L160.65,63a.28.28,0,0,0-.33-.36A12.66,12.66,0,0,1,157.25,63.19Z" transform="translate(-41.63 -32.09)"/><path class="cls-2" d="M117.1,58.5a10.23,10.23,0,0,0-2.34-4.07,15.83,15.83,0,0,0,3.65-1.14,8.85,8.85,0,0,0,5.31-8.89c-.19-5.74-5.15-8.16-9-8.16l-10.87,0a.28.28,0,0,0-.27.23l-1.17,5.35a.28.28,0,0,0,.27.34l12.26,0,2.16,3.55-3.73,3.55-12.36,0a.3.3,0,0,0-.28.23l-4,18.37a.29.29,0,0,0,.28.35h6.87a.27.27,0,0,0,.27-.22l2.7-12.42h1.35c1.53.19,2.12,4.22,2.71,6.31.88,3.17,2.64,6.49,6.94,6.49a13.7,13.7,0,0,0,2.37-.24.28.28,0,0,0,.21-.2l1.7-5.38a4,4,0,0,1-1.37.24c-2.55,0-2.92-2.28-3.61-4.27" transform="translate(-41.63 -32.09)"/><path class="cls-3" d="M62.06,58.5a10.26,10.26,0,0,0-2.35-4.07,15.53,15.53,0,0,0,3.65-1.14,8.87,8.87,0,0,0,5.32-8.89c-.2-5.74-5.16-8.16-9-8.16l-10.87,0a.29.29,0,0,0-.28.23L47.32,41.8a.28.28,0,0,0,.28.34l12.25,0L62,45.71l-3.73,3.55-12.36,0a.29.29,0,0,0-.28.23l-4,18.37a.28.28,0,0,0,.28.35h6.86a.28.28,0,0,0,.28-.22l2.7-12.42H53.1c1.53.19,2.12,4.22,2.72,6.31.87,3.17,2.63,6.49,6.93,6.49a13.58,13.58,0,0,0,2.37-.24.28.28,0,0,0,.21-.2L67,62.53a4,4,0,0,1-1.38.24c-2.54,0-2.92-2.28-3.6-4.27" transform="translate(-41.63 -32.09)"/><path class="cls-1" d="M104.26,85.83l-.61.06-.84,0a2.91,2.91,0,0,1-.65,0,.2.2,0,0,1-.16-.22,1.12,1.12,0,0,1,0-.24c.47-1.46.79-2.56,1-3.29a8.43,8.43,0,0,0,.28-1.72,1.1,1.1,0,0,0-.1-.55.48.48,0,0,0-.4-.16,1.85,1.85,0,0,0-1.26.72,8.36,8.36,0,0,0-1.26,1.78,12.53,12.53,0,0,0-.89,2l-.12.49-.28,1a.21.21,0,0,1-.06.1.19.19,0,0,1-.12,0H97.45a.12.12,0,0,1-.11,0,.11.11,0,0,1,0-.11c.45-1.6.78-2.77,1-3.54a8.71,8.71,0,0,0,.29-1.7,1.37,1.37,0,0,0-.09-.61.44.44,0,0,0-.4-.19,1.93,1.93,0,0,0-1.29.79,9.66,9.66,0,0,0-1.33,1.92,9.14,9.14,0,0,0-.84,2l-.2.85-.1.46a.31.31,0,0,1,0,.1.16.16,0,0,1-.12,0H92.83a.12.12,0,0,1-.09,0,.13.13,0,0,1,0-.11c.56-2.74,1.09-5.1,1.6-7.1a.21.21,0,0,1,.06-.1.15.15,0,0,1,.11,0h1.35a.11.11,0,0,1,.1,0,.14.14,0,0,1,0,.11c-.13.39-.25.8-.38,1.22s-.2.75-.26,1a0,0,0,0,0,0,.05s0,0,.05,0A7,7,0,0,1,96.93,79a2.81,2.81,0,0,1,1.76-.68,1.28,1.28,0,0,1,1.09.43,2,2,0,0,1,.31,1.24c0,.2,0,.47-.06.8,0,0,0,.06,0,.06s0,0,.06,0A6.35,6.35,0,0,1,101.61,79a2.83,2.83,0,0,1,1.78-.66,1.54,1.54,0,0,1,1.24.45,1.81,1.81,0,0,1,.37,1.28,8.13,8.13,0,0,1-.28,1.77c-.17.7-.44,1.59-.8,2.67v.05s0,0,.12,0h.28l.35,0h0a.07.07,0,0,1,.07,0s0,0,0,.09l-.35,1A.19.19,0,0,1,104.26,85.83Z" transform="translate(-41.63 -32.09)"/><path class="cls-1" d="M107.75,83.26a1.27,1.27,0,0,0,.43,1.13,2.47,2.47,0,0,0,1.4.32,6.25,6.25,0,0,0,2.1-.39h.07a.06.06,0,0,1,.06,0,.11.11,0,0,1,0,.08l-.3,1.14a.19.19,0,0,1,0,.09.2.2,0,0,1-.1.07,6.47,6.47,0,0,1-2.14.32,3.51,3.51,0,0,1-2.33-.71,2.63,2.63,0,0,1-.82-2.19,5.34,5.34,0,0,1,.59-2.34,4.59,4.59,0,0,1,1.61-1.8,4.24,4.24,0,0,1,2.37-.68,3.34,3.34,0,0,1,1.17.19,1.82,1.82,0,0,1,.83.6,1.66,1.66,0,0,1,.29,1q-.06,2.82-5.1,3C107.78,83.14,107.75,83.18,107.75,83.26Zm1.57-3.33a2.85,2.85,0,0,0-.91.82,3,3,0,0,0-.52,1.1c0,.08,0,.12.07.12a6.13,6.13,0,0,0,2.7-.51,1.31,1.31,0,0,0,.78-1.1.6.6,0,0,0-.26-.56,1.34,1.34,0,0,0-.75-.18A2.21,2.21,0,0,0,109.32,79.93Z" transform="translate(-41.63 -32.09)"/><path class="cls-1" d="M115.55,86a1.81,1.81,0,0,1-1.22-.34,1.29,1.29,0,0,1-.37-1.06,25.53,25.53,0,0,1,1-4.7q0-.09-.06-.09h-1.06q-.14,0-.09-.15l.27-1a.15.15,0,0,1,.16-.14h1a.1.1,0,0,0,.12-.09c.19-.74.36-1.35.5-1.81a.29.29,0,0,1,.06-.1l.09,0,1.44-.16h0s.07,0,.08,0,0,0,0,.09c-.25.78-.43,1.43-.57,2a.08.08,0,0,0,0,.07l0,0h1.53c.1,0,.13.05.1.14l-.28,1.05a.17.17,0,0,1-.17.14h-1.49s-.08,0-.1.09c-.27.94-.49,1.82-.68,2.62a9.23,9.23,0,0,0-.3,1.62.47.47,0,0,0,.13.39.69.69,0,0,0,.43.11,5.94,5.94,0,0,0,1-.11h0a.06.06,0,0,1,.06,0,.1.1,0,0,1,0,.09l-.3,1a.2.2,0,0,1-.06.11.26.26,0,0,1-.1.07A4.78,4.78,0,0,1,115.55,86Z" transform="translate(-41.63 -32.09)"/><path class="cls-1" d="M128.88,79.08a2.88,2.88,0,0,1,.73,2.18,5.62,5.62,0,0,1-.53,2.35,4.19,4.19,0,0,1-1.46,1.76,4,4,0,0,1-2.32.67,3.19,3.19,0,0,1-2.25-.74,2.67,2.67,0,0,1-.77-2.11,5.71,5.71,0,0,1,.56-2.44,4.32,4.32,0,0,1,1.5-1.77,3.93,3.93,0,0,1,2.26-.66A3.08,3.08,0,0,1,128.88,79.08Zm-2.11,5.07a3.13,3.13,0,0,0,.85-1.27,4.66,4.66,0,0,0,.3-1.51c0-1.13-.46-1.69-1.46-1.69a1.91,1.91,0,0,0-1.31.5,3.17,3.17,0,0,0-.87,1.26A4.53,4.53,0,0,0,124,83a2.06,2.06,0,0,0,.32,1.24,1.26,1.26,0,0,0,1.11.46A2,2,0,0,0,126.77,84.15Z" transform="translate(-41.63 -32.09)"/><path class="cls-1" d="M137.26,85.79l-.1,0-.6.06-.82,0a3.09,3.09,0,0,1-.66,0c-.13,0-.19-.11-.18-.22a.64.64,0,0,1,0-.22c.46-1.49.78-2.59,1-3.31a7.68,7.68,0,0,0,.29-1.66,1.22,1.22,0,0,0-.1-.59.45.45,0,0,0-.41-.18,2,2,0,0,0-1.33.8A9.58,9.58,0,0,0,133,82.4a8.73,8.73,0,0,0-.85,2c-.07.29-.17.72-.28,1.29a.21.21,0,0,1-.06.1.15.15,0,0,1-.11,0h-1.35a.12.12,0,0,1-.09,0s0-.06,0-.11q.73-3.65,1.6-7.1a.31.31,0,0,1,0-.1.16.16,0,0,1,.12,0h1.35a.11.11,0,0,1,.1,0,.2.2,0,0,1,0,.11c-.11.33-.23.68-.34,1.08s-.22.75-.3,1.08c0,0,0,0,0,.06s0,0,0,0A6.68,6.68,0,0,1,134.46,79a2.85,2.85,0,0,1,1.78-.67c1.13,0,1.68.58,1.66,1.76a7.9,7.9,0,0,1-.27,1.72c-.17.68-.44,1.58-.81,2.69v.05s0,0,.12,0h.27l.34,0h0s.07,0,.08,0a.22.22,0,0,1,0,.09l-.35,1A.19.19,0,0,1,137.26,85.79Z" transform="translate(-41.63 -32.09)"/><path class="cls-1" d="M138.61,85.66a.14.14,0,0,1,0-.11l.28-1.11a.13.13,0,0,1,.07-.09.09.09,0,0,1,.1,0,5.64,5.64,0,0,0,.94.25,4.76,4.76,0,0,0,.87.09,2,2,0,0,0,.92-.17.7.7,0,0,0,.32-.67.86.86,0,0,0-.12-.44,1.9,1.9,0,0,0-.37-.4c-.17-.14-.42-.32-.75-.55a3.72,3.72,0,0,1-.76-.63,1.85,1.85,0,0,1-.38-.59,2.19,2.19,0,0,1,.33-2,2.36,2.36,0,0,1,1.07-.73,4.18,4.18,0,0,1,1.44-.23,6,6,0,0,1,1,.08,5.18,5.18,0,0,1,.79.17.12.12,0,0,1,.08.16l-.29,1c0,.08-.09.11-.2.08a5.23,5.23,0,0,0-1.44-.21,1.83,1.83,0,0,0-.91.2.75.75,0,0,0-.15,1.13,4.19,4.19,0,0,0,.79.64,6.81,6.81,0,0,1,.87.68,2.3,2.3,0,0,1,.49.69,1.84,1.84,0,0,1,.16.83,1.92,1.92,0,0,1-.85,1.7,4,4,0,0,1-2.17.53,7.35,7.35,0,0,1-1.08-.09,6.09,6.09,0,0,1-1-.22C138.66,85.71,138.62,85.69,138.61,85.66Z" transform="translate(-41.63 -32.09)"/><path class="cls-1" d="M160,85.83l-.61.06-.84,0a2.91,2.91,0,0,1-.65,0,.21.21,0,0,1-.17-.22,1.44,1.44,0,0,1,0-.24c.46-1.46.78-2.56,1-3.29a8.58,8.58,0,0,0,.29-1.72,1,1,0,0,0-.11-.55.45.45,0,0,0-.39-.16,1.89,1.89,0,0,0-1.27.72,8.34,8.34,0,0,0-1.25,1.78,12.53,12.53,0,0,0-.89,2l-.13.49-.27,1a.17.17,0,0,1-.07.1.16.16,0,0,1-.12,0h-1.35a.12.12,0,0,1-.1,0,.09.09,0,0,1,0-.11c.46-1.6.78-2.77,1-3.54a8.93,8.93,0,0,0,.3-1.7,1.35,1.35,0,0,0-.1-.61.42.42,0,0,0-.4-.19,1.89,1.89,0,0,0-1.28.79,9.26,9.26,0,0,0-1.33,1.92,9.14,9.14,0,0,0-.84,2l-.21.85-.09.46a.21.21,0,0,1-.06.1.15.15,0,0,1-.11,0h-1.35a.12.12,0,0,1-.09,0s0-.06,0-.11c.55-2.74,1.08-5.1,1.6-7.1a.21.21,0,0,1,.06-.1.12.12,0,0,1,.11,0h1.35a.11.11,0,0,1,.1,0,.14.14,0,0,1,0,.11c-.13.39-.26.8-.38,1.22s-.21.75-.26,1c0,0,0,0,0,.05s0,0,.05,0A7,7,0,0,1,152.71,79a2.78,2.78,0,0,1,1.75-.68,1.26,1.26,0,0,1,1.09.43,2,2,0,0,1,.31,1.24c0,.2,0,.47-.05.8,0,0,0,.06,0,.06s0,0,.06,0A6.35,6.35,0,0,1,157.39,79a2.82,2.82,0,0,1,1.77-.66,1.55,1.55,0,0,1,1.25.45,1.86,1.86,0,0,1,.37,1.28,8.13,8.13,0,0,1-.28,1.77c-.17.7-.44,1.59-.8,2.67l0,.05s0,0,.13,0h.28l.34,0h0s.07,0,.08,0a.22.22,0,0,1,0,.09l-.35,1A.19.19,0,0,1,160,85.83Z" transform="translate(-41.63 -32.09)"/><path class="cls-1" d="M163.53,83.26a1.27,1.27,0,0,0,.43,1.13,2.45,2.45,0,0,0,1.4.32,6.15,6.15,0,0,0,2.09-.39h.07a.09.09,0,0,1,.07,0,.11.11,0,0,1,0,.08l-.29,1.14a.19.19,0,0,1,0,.09.26.26,0,0,1-.1.07A6.51,6.51,0,0,1,165,86a3.49,3.49,0,0,1-2.33-.71,2.6,2.6,0,0,1-.82-2.19,5.2,5.2,0,0,1,.59-2.34,4.57,4.57,0,0,1,1.6-1.8,4.24,4.24,0,0,1,2.37-.68,3.36,3.36,0,0,1,1.18.19,1.79,1.79,0,0,1,.82.6,1.66,1.66,0,0,1,.3,1q-.06,2.82-5.1,3C163.56,83.14,163.53,83.18,163.53,83.26Zm1.56-3.33a3.08,3.08,0,0,0-.91.82,3,3,0,0,0-.51,1.1c0,.08,0,.12.07.12a6.2,6.2,0,0,0,2.7-.51,1.31,1.31,0,0,0,.78-1.1.65.65,0,0,0-.26-.56,1.34,1.34,0,0,0-.75-.18A2.28,2.28,0,0,0,165.09,79.93Z" transform="translate(-41.63 -32.09)"/><path class="cls-1" d="M171,83.26a1.27,1.27,0,0,0,.43,1.13,2.47,2.47,0,0,0,1.4.32,6.15,6.15,0,0,0,2.09-.39H175a.07.07,0,0,1,.06,0,.11.11,0,0,1,0,.08l-.29,1.14a.19.19,0,0,1,0,.09.2.2,0,0,1-.1.07,6.47,6.47,0,0,1-2.14.32,3.51,3.51,0,0,1-2.33-.71,2.6,2.6,0,0,1-.82-2.19A5.2,5.2,0,0,1,170,80.8a4.57,4.57,0,0,1,1.6-1.8,4.24,4.24,0,0,1,2.37-.68,3.36,3.36,0,0,1,1.18.19,1.82,1.82,0,0,1,.83.6,1.66,1.66,0,0,1,.29,1q-.06,2.82-5.1,3C171.07,83.14,171,83.18,171,83.26Zm1.57-3.33a3.1,3.1,0,0,0-1.43,1.92c0,.08,0,.12.07.12a6.16,6.16,0,0,0,2.7-.51,1.31,1.31,0,0,0,.78-1.1.62.62,0,0,0-.26-.56,1.34,1.34,0,0,0-.75-.18A2.21,2.21,0,0,0,172.61,79.93Z" transform="translate(-41.63 -32.09)"/></svg>