<?xml version="1.0" encoding="UTF-8"?>
<svg id="Laag_2" data-name="Laag 2" xmlns="http://www.w3.org/2000/svg" viewBox="0 0 7867.14 1393.51">
  <g id="Laag_1-2" data-name="Laag 1-2">
    <g>
      <path d="M364.75,1391.64c-142.16,0-181.44-78.56-181.44-187.05V490.07c0-7.48-3.74-11.22-11.22-11.22H18.71c-11.22,0-18.71-7.48-18.71-18.7v-67.34c0-11.22,7.48-18.71,18.71-18.71h153.38c7.48,0,11.22-3.74,11.22-11.22v-233.81c0-11.22,7.48-18.7,18.71-18.7h95.39c11.22,0,18.7,7.48,18.7,18.7v233.81c0,7.48,3.74,11.22,11.22,11.22h173.96c11.22,0,18.7,7.48,18.7,18.71v67.34c0,11.22-7.48,18.7-18.7,18.7h-173.96c-7.48,0-11.22,3.74-11.22,11.22v690.21c0,86.04,16.83,108.49,93.52,108.49h74.82c11.22,0,18.7,3.74,18.7,16.83l-1.87,52.37c0,11.22-5.61,18.7-16.83,20.58-31.8,7.48-76.69,13.09-119.71,13.09h.01Z" style="fill: #3d3935; stroke-width: 0px;"/>
      <path d="M746.3,160.86c-11.22,0-18.7-7.48-18.7-18.7V20.58c0-11.22,7.48-18.7,18.7-18.7h115.97c11.22,0,18.71,7.48,18.71,18.7v121.58c0,11.22-7.48,18.7-18.71,18.7h-115.97ZM755.65,1374.81c-11.22,0-18.7-7.48-18.7-18.7V392.8c0-11.22,7.48-18.71,18.7-18.71h95.4c11.22,0,18.7,7.48,18.7,18.71v963.3c0,11.22-7.48,18.7-18.7,18.7h-95.4Z" style="fill: #3d3935; stroke-width: 0px;"/>
      <path d="M1904.12,1356.1c0,11.22-7.48,18.7-18.7,18.7h-95.4c-11.22,0-18.7-7.48-18.7-18.7v-774.38c0-93.53-65.47-119.71-205.75-119.71-61.73,0-149.64,5.61-198.27,16.83-13.09,3.74-18.7,7.48-18.7,20.58v856.68c0,11.22-7.48,18.7-18.7,18.7h-95.4c-11.22,0-18.7-7.48-18.7-18.7V411.51c0-11.22,5.61-18.7,18.7-20.58,59.86-13.09,226.33-35.54,332.95-35.54s200.14,9.35,260,48.63c3.74,1.87,11.22,1.87,14.96,0,95.4-35.54,202.01-48.63,280.57-48.63,250.65,0,353.52,104.75,353.52,286.19v714.53c0,11.22-7.48,18.7-18.71,18.7h-95.39c-11.22,0-18.7-7.48-18.7-18.7v-695.82c0-151.51-95.39-198.27-243.16-198.27-54.24,0-125.32,5.61-173.96,18.7-14.96,3.74-22.45,9.35-22.45,22.45v852.94h-.01Z" style="fill: #3d3935; stroke-width: 0px;"/>
      <path d="M2815.01,1357.98c-13.09-3.74-18.7-7.48-18.7-18.7V18.7c0-11.22,7.48-18.7,18.7-18.7h95.4c11.22,0,18.7,7.48,18.7,18.7v338.56c0,11.22,3.74,14.96,13.09,14.96,26.19,0,101.01-16.83,196.4-16.83,310.5,0,413.38,136.55,413.38,497.55s-87.91,540.57-437.7,540.57c-114.1,0-216.98-14.96-299.28-35.54h.01ZM2945.95,480.72c-13.09,3.74-16.83,13.09-16.83,28.06v744.46c0,11.22,3.74,16.83,18.7,20.58,37.41,9.35,108.49,14.96,166.47,14.96,245.03,0,299.28-114.1,299.28-426.47s-61.73-400.28-289.93-400.28c-76.69,0-142.16,9.35-177.7,18.7h.01Z" style="fill: #3d3935; stroke-width: 0px;"/>
      <path d="M4259.02,1393.51c-377.84,0-454.53-233.81-454.53-520s93.52-518.13,404.03-518.13,366.62,179.57,366.62,428.34v41.15c0,72.95-16.83,84.17-48.63,84.17h-574.24c-9.35,0-11.22,3.74-11.22,13.09,0,267.48,99.14,364.75,344.17,364.75,84.17,0,175.83-20.58,233.81-44.89,13.09-5.61,24.32-5.61,26.19,9.35l7.48,69.21c0,9.35-3.74,16.83-13.09,22.45-76.69,31.8-172.09,50.5-280.57,50.5h-.02ZM3952.26,808.05h476.98c16.83,0,22.45-3.74,22.45-65.47,0-187.05-52.37-284.32-243.16-284.32-218.85,0-267.48,158.99-267.48,336.69,0,7.48,1.87,13.09,11.22,13.09h-.01Z" style="fill: #3d3935; stroke-width: 0px;"/>
      <path d="M4872.53,390.93c91.65-20.58,187.05-35.54,274.96-35.54,59.86,0,108.49,1.87,149.64,9.35,7.48,1.87,11.22,5.61,11.22,14.96l-9.35,86.04c-1.87,7.48-5.61,11.22-13.09,9.35-41.15-7.48-87.91-13.09-140.29-13.09-39.28,0-102.88,5.61-142.16,18.7-13.09,3.74-16.83,9.35-16.83,20.58v854.81c0,13.09-7.48,20.58-20.58,18.7h-93.52c-11.22,0-18.7-7.48-18.7-18.7V409.64c0-11.22,7.48-16.83,18.7-18.71h0Z" style="fill: #3d3935; stroke-width: 0px;"/>
      <path d="M5686.17,1393.51c-155.25,0-233.81-54.24-233.81-228.2V20.58c0-13.09,7.48-20.58,18.7-20.58h207.62c11.22,0,18.7,7.48,18.7,20.58v1111.07c0,59.85,24.32,78.56,78.56,78.56h59.86c9.35,0,18.7,3.74,18.7,18.7l-5.61,123.45c0,11.22-9.35,20.58-18.71,22.45-41.15,11.22-86.04,18.7-144.03,18.7h.02Z" style="fill: #3d3935; stroke-width: 0px;"/>
      <path d="M6080.83,570.5c-11.22,1.87-26.19,1.87-28.06-9.35l-13.09-144.03c-1.87-11.22,0-22.45,11.22-26.19,71.08-20.58,202.01-35.54,327.34-35.54,231.94,0,372.23,78.56,372.23,297.41v678.99c0,11.22-3.74,20.58-24.32,28.06-65.47,20.58-198.27,33.67-327.34,33.67-336.69,0-437.69-63.6-437.69-278.7,0-190.79,43.02-276.83,317.98-310.5l220.72-28.06c7.48-1.87,11.22-3.74,11.22-11.22v-74.82c0-112.23-52.37-138.42-198.27-138.42-67.34,0-172.09,9.35-231.94,18.7h0ZM6511.05,940.86c0-7.48-3.74-11.22-11.22-11.22h-125.32c-134.67,0-175.83,24.32-175.83,158.99s33.67,147.77,181.44,147.77c43.02,0,93.52-3.74,117.84-9.35,11.22-3.74,13.09-7.48,13.09-13.09v-273.09h0Z" style="fill: #3d3935; stroke-width: 0px;"/>
      <path d="M7032.9,1354.23c-13.09-5.61-16.83-14.96-16.83-20.58V18.7c0-11.22,7.48-18.7,18.7-18.7h207.62c11.22,0,18.7,7.48,18.7,18.7v338.56c0,9.35,3.74,14.96,14.96,14.96,26.19,0,117.84-14.96,187.05-14.96,303.02,0,404.03,153.38,404.03,486.33,0,366.62-97.27,549.92-484.46,549.92-129.06,0-293.67-14.96-349.78-39.28h0ZM7261.1,1187.76c0,7.48,3.74,16.83,13.09,18.7,26.19,5.61,71.08,9.35,106.62,9.35,198.27,0,230.07-80.43,230.07-355.39s-50.5-323.59-220.72-323.59c-50.5,0-95.4,7.48-115.97,14.96-11.22,3.74-13.09,11.22-13.09,20.58v615.39h0Z" style="fill: #3d3935; stroke-width: 0px;"/>
    </g>
  </g>
</svg>